<?xml version="1.0" standalone="no"?>
<!DOCTYPE svg PUBLIC "-//W3C//DTD SVG 20010904//EN"
 "http://www.w3.org/TR/2001/REC-SVG-20010904/DTD/svg10.dtd">
<svg version="1.0" xmlns="http://www.w3.org/2000/svg"
 width="512.000000pt" height="512.000000pt" viewBox="0 0 512.000000 512.000000"
 preserveAspectRatio="xMidYMid meet">

<g transform="translate(0.000000,512.000000) scale(0.100000,-0.100000)"
fill="#bd9678" stroke="none">
<path d="M4025 4295 c-21 -20 -25 -34 -25 -80 l0 -55 -55 0 c-67 0 -105 -29
-105 -80 0 -51 38 -80 105 -80 l55 0 0 -55 c0 -67 29 -105 80 -105 51 0 80 38
80 105 l0 55 55 0 c67 0 105 29 105 80 0 51 -38 80 -105 80 l-55 0 0 55 c0 67
-29 105 -80 105 -19 0 -40 -9 -55 -25z"/>
<path d="M3385 3975 c-21 -20 -25 -34 -25 -80 l0 -55 -55 0 c-67 0 -105 -29
-105 -80 0 -51 38 -80 105 -80 l55 0 0 -55 c0 -67 29 -105 80 -105 51 0 80 38
80 105 l0 55 55 0 c67 0 105 29 105 80 0 51 -38 80 -105 80 l-55 0 0 55 c0 67
-29 105 -80 105 -19 0 -40 -9 -55 -25z"/>
<path d="M4665 3895 c-21 -20 -25 -34 -25 -80 l0 -55 -55 0 c-67 0 -105 -29
-105 -80 0 -51 38 -80 105 -80 l55 0 0 -55 c0 -67 29 -105 80 -105 51 0 80 38
80 105 l0 55 55 0 c67 0 105 29 105 80 0 51 -38 80 -105 80 l-55 0 0 55 c0 67
-29 105 -80 105 -19 0 -40 -9 -55 -25z"/>
<path d="M380 3504 c-177 -64 -264 -251 -196 -417 l24 -59 -21 -56 c-19 -50
-21 -79 -21 -247 -1 -203 5 -236 59 -345 47 -93 151 -194 251 -243 l41 -20
-16 -31 c-9 -19 -16 -57 -16 -98 l0 -68 -138 0 c-133 0 -139 -1 -162 -25 l-25
-24 0 -511 0 -511 25 -24 24 -25 2351 0 2351 0 24 25 25 24 0 863 0 863 -36
108 -36 109 31 68 c63 137 49 243 -43 335 -64 64 -122 85 -236 85 -114 0 -172
-21 -236 -85 -92 -92 -106 -200 -44 -333 34 -72 34 -127 2 -118 -10 3 -53 12
-97 21 -44 8 -90 17 -102 20 -17 4 -27 23 -48 86 l-27 81 31 68 c63 137 49
243 -43 335 -64 64 -122 85 -236 85 -114 0 -172 -21 -236 -85 -92 -92 -106
-198 -43 -335 28 -62 30 -71 19 -104 l-12 -37 -116 3 -115 3 -25 73 -24 74 31
68 c63 137 49 243 -43 335 -64 64 -122 85 -236 85 -114 0 -172 -21 -236 -85
-92 -92 -106 -198 -43 -335 l31 -68 -33 -100 c-32 -97 -34 -101 -73 -119 -22
-10 -67 -35 -99 -55 l-58 -38 -249 0 c-248 0 -249 0 -261 22 -26 49 -368 496
-400 523 -19 15 -63 42 -99 59 l-65 31 -352 3 c-194 2 -353 7 -353 11 0 19
-83 92 -132 117 -67 34 -171 42 -238 18z m152 -155 c19 -10 15 -14 -48 -44
-38 -18 -89 -48 -114 -68 -24 -20 -46 -34 -48 -32 -10 9 12 69 36 97 44 52
124 74 174 47z m2607 -4 c29 -15 61 -68 61 -102 0 -10 -18 -56 -40 -102 -22
-45 -40 -90 -40 -100 0 -10 11 -50 24 -89 l25 -72 -129 0 -129 0 25 72 c13 39
24 79 24 89 0 10 -18 55 -40 100 -22 46 -40 94 -40 106 0 36 27 81 58 97 36
20 164 21 201 1z m800 -80 c29 -15 61 -68 61 -102 0 -10 -18 -56 -40 -102 -22
-45 -40 -90 -40 -100 0 -10 9 -44 20 -76 l20 -58 -33 6 c-17 3 -66 11 -107 18
-41 7 -77 14 -79 15 -2 2 3 25 10 53 12 50 12 51 -29 138 -23 49 -42 97 -42
107 0 32 32 86 59 101 35 19 163 19 200 0z m-2505 -77 c28 -8 61 -32 106 -77
l65 -66 -72 -3 c-67 -3 -77 0 -152 38 l-81 40 -145 0 c-142 0 -147 -1 -170
-25 -22 -21 -25 -33 -25 -102 l0 -77 -160 -161 -160 -161 0 -172 c0 -139 -3
-172 -14 -172 -7 0 -45 16 -83 35 -86 43 -144 103 -186 193 l-32 67 0 175 0
175 32 67 c17 37 50 87 72 111 44 48 135 101 197 116 61 14 758 13 808 -1z
m3305 -83 c29 -15 61 -68 61 -102 0 -10 -18 -56 -40 -102 -22 -45 -40 -90 -40
-100 0 -10 9 -43 19 -74 14 -40 16 -57 8 -57 -20 0 -198 37 -203 43 -2 2 1 25
8 50 11 44 11 49 -30 134 -23 49 -42 97 -42 107 0 32 32 86 59 101 35 19 163
19 200 0z m-3399 -185 l80 -40 150 0 150 0 90 -120 c49 -66 94 -137 99 -157
15 -51 14 -146 -1 -197 -16 -55 -99 -138 -154 -154 -30 -9 -169 -12 -498 -12
l-456 0 0 142 0 142 160 161 160 161 0 57 0 57 70 0 c62 0 80 -5 150 -40z
m2350 -210 c41 -5 308 -55 593 -112 l517 -103 0 -287 0 -288 -895 0 -896 0
-24 -25 c-16 -15 -25 -36 -25 -55 0 -19 9 -40 25 -55 l24 -25 896 0 895 0 0
-400 0 -400 -2240 0 -2240 0 0 400 0 401 163 -4 c142 -4 260 -19 952 -120 435
-64 800 -117 812 -117 15 0 107 70 265 201 134 111 253 212 266 226 30 32 29
77 -3 108 -49 50 -64 43 -317 -170 -166 -138 -240 -194 -258 -195 -48 0 -1490
209 -1510 220 -56 30 -65 96 -21 141 l29 29 708 0 707 0 271 268 c293 290 329
318 458 352 65 17 110 19 423 19 193 0 384 -4 425 -9z m-1485 -310 c-104 -104
-167 -160 -181 -160 -19 0 -19 3 14 69 29 59 35 83 40 160 l5 91 141 0 141 0
-160 -160z"/>
</g>
</svg>
