<?xml version="1.0" standalone="no"?>
<!DOCTYPE svg PUBLIC "-//W3C//DTD SVG 20010904//EN"
 "http://www.w3.org/TR/2001/REC-SVG-20010904/DTD/svg10.dtd">
<svg version="1.0" xmlns="http://www.w3.org/2000/svg"
 width="512.000000pt" height="512.000000pt" viewBox="0 0 512.000000 512.000000"
 preserveAspectRatio="xMidYMid meet">

<g transform="translate(0.000000,512.000000) scale(0.100000,-0.100000)"
fill="#bd9678" stroke="none">
<path d="M700 5106 c-259 -40 -630 -140 -662 -178 -38 -44 -7 -118 49 -118 13
0 85 18 161 40 301 87 452 114 632 114 114 0 145 -4 200 -23 35 -12 77 -32 92
-43 57 -40 120 -198 184 -458 37 -152 52 -180 99 -180 37 0 75 37 75 74 0 41
-70 318 -105 416 -38 105 -80 184 -120 229 -41 46 -128 93 -210 116 -81 22
-287 28 -395 11z"/>
<path d="M1465 4085 c-14 -13 -25 -31 -25 -39 0 -8 11 -86 25 -173 105 -645
191 -1554 211 -2223 3 -118 12 -246 20 -285 20 -99 71 -200 139 -273 32 -35
272 -232 534 -438 262 -207 484 -385 494 -396 9 -11 17 -30 17 -42 0 -24 -38
-66 -59 -66 -7 0 -200 63 -429 140 -229 77 -464 151 -522 165 -58 14 -205 36
-327 50 -329 37 -341 40 -387 95 -83 99 -69 309 30 455 70 102 69 96 56 235
-26 285 -124 712 -226 976 -18 49 -83 186 -143 304 -122 239 -181 382 -224
545 -59 225 -60 408 -3 600 39 133 39 131 11 159 -48 48 -62 41 -332 -160
-284 -210 -305 -229 -305 -262 0 -54 47 -90 94 -72 13 4 97 63 187 129 89 67
164 119 166 118 1 -2 -2 -40 -7 -85 -14 -107 2 -304 35 -437 48 -196 108 -345
265 -650 74 -144 123 -253 153 -345 78 -232 151 -562 178 -803 l12 -108 -30
-42 c-156 -218 -161 -529 -12 -678 72 -72 114 -83 465 -123 138 -16 262 -36
334 -55 114 -29 440 -135 760 -246 187 -65 225 -67 304 -21 65 38 99 100 100
180 1 112 8 106 -539 538 -270 213 -511 410 -537 437 -57 62 -94 137 -107 222
-6 35 -15 195 -21 355 -24 668 -104 1490 -207 2134 -22 137 -30 168 -49 187
-30 30 -69 29 -99 -2z"/>
<path d="M3610 4059 c-131 -10 -163 -25 -168 -77 -2 -24 4 -39 23 -58 25 -25
31 -26 94 -20 260 24 520 16 621 -19 99 -34 293 -201 498 -428 158 -176 172
-194 172 -224 0 -17 -54 -80 -199 -232 -130 -137 -206 -226 -222 -258 -42 -86
-38 -135 35 -454 l66 -287 -30 -70 c-42 -98 -92 -183 -165 -277 -63 -81 -102
-122 -109 -114 -2 2 -56 234 -120 514 -126 553 -130 565 -206 610 -34 19 -53
20 -646 25 -584 5 -613 6 -633 24 -21 19 -21 23 -21 528 0 481 1 509 18 526
20 20 140 42 457 83 88 11 170 27 182 35 45 29 39 103 -11 125 -18 9 -56 7
-152 -6 -218 -28 -457 -66 -494 -77 -81 -24 -138 -94 -149 -181 l-6 -52 -115
-5 c-131 -6 -150 -14 -180 -76 -19 -37 -20 -62 -20 -337 0 -322 2 -339 54
-387 26 -23 36 -25 147 -28 l119 -4 0 -71 c0 -48 7 -85 19 -112 19 -43 76 -99
120 -118 19 -9 188 -13 616 -15 325 -1 600 -4 612 -7 16 -4 43 -47 43 -70 0
-2 -21 -6 -47 -10 -74 -11 -121 -34 -158 -78 -44 -52 -58 -95 -53 -167 6 -82
46 -145 117 -182 47 -25 64 -28 147 -28 51 0 95 -4 98 -8 3 -5 26 -100 51
-213 84 -370 117 -504 137 -542 46 -91 158 -169 263 -182 l51 -7 37 -80 c87
-184 274 -305 481 -311 71 -2 79 0 97 22 26 31 24 73 -3 98 -16 15 -43 23 -93
28 -141 14 -250 75 -318 177 -53 81 -56 101 -15 126 90 56 149 157 156 267 4
63 -10 130 -128 645 -96 417 -131 586 -127 617 5 48 10 54 259 316 175 184
188 205 188 292 -1 65 -30 112 -167 265 -221 247 -427 431 -555 496 -26 13
-76 31 -110 39 -79 19 -400 27 -558 14z m-1160 -784 l0 -265 -85 0 -85 0 0
265 0 265 85 0 85 0 0 -265z m1455 -1015 c6 -25 14 -60 18 -77 l7 -33 -67 0
c-55 0 -71 4 -90 22 -23 21 -30 59 -17 93 9 24 62 45 103 42 32 -2 36 -5 46
-47z m720 -670 c41 -179 43 -218 14 -277 -71 -146 -281 -146 -354 0 l-24 48
97 97 c84 84 139 155 206 265 10 16 19 27 21 25 3 -2 20 -73 40 -158z"/>
<path d="M3432 3564 c-15 -10 -22 -25 -22 -49 0 -45 137 -423 163 -452 36 -41
108 -22 121 31 7 30 -138 440 -166 468 -22 22 -66 23 -96 2z"/>
<path d="M3849 3562 c-14 -12 -22 -30 -22 -48 0 -41 149 -446 170 -461 46 -35
118 1 116 58 -2 47 -148 441 -170 456 -24 19 -67 16 -94 -5z"/>
</g>
</svg>
