<?xml version="1.0" standalone="no"?>
<!DOCTYPE svg PUBLIC "-//W3C//DTD SVG 20010904//EN"
 "http://www.w3.org/TR/2001/REC-SVG-20010904/DTD/svg10.dtd">
<svg version="1.0" xmlns="http://www.w3.org/2000/svg"
 width="512.000000pt" height="512.000000pt" viewBox="0 0 512.000000 512.000000"
 preserveAspectRatio="xMidYMid meet">

<g transform="translate(0.000000,512.000000) scale(0.100000,-0.100000)"
fill="#bd9678" stroke="none">
<path d="M1605 4444 c-65 -11 -153 -37 -217 -65 -40 -18 -84 -29 -110 -29
-100 0 -250 -40 -353 -94 -81 -42 -192 -154 -232 -234 -17 -34 -62 -95 -98
-135 -90 -96 -176 -228 -202 -307 -16 -49 -23 -104 -28 -225 -9 -187 -7 -196
85 -458 33 -94 59 -171 58 -172 -2 -1 -34 -23 -73 -50 -278 -193 -435 -360
-435 -460 0 -99 80 -235 217 -366 77 -74 221 -190 269 -217 15 -8 13 -20 -21
-113 -51 -143 -101 -345 -114 -459 -24 -208 33 -320 188 -368 92 -28 322 -23
486 12 326 68 758 220 1215 429 418 190 381 179 525 152 264 -52 597 -82 1015
-94 478 -14 1257 13 1307 45 43 28 42 101 -2 130 -22 14 -43 14 -217 2 -305
-21 -1298 -18 -1548 5 -205 18 -426 48 -542 72 -94 20 -174 19 -239 -4 -30
-10 -128 -53 -219 -96 -701 -327 -1281 -515 -1595 -515 -105 0 -154 12 -192
45 -27 22 -28 28 -27 107 1 153 84 444 215 755 44 104 49 151 19 178 -26 23
-83 25 -107 3 -10 -9 -29 -44 -42 -77 -13 -34 -27 -61 -32 -61 -4 0 -47 31
-96 69 -165 128 -303 293 -303 362 0 31 130 156 280 268 l125 93 3 -31 c2 -18
-6 -72 -17 -120 -12 -49 -21 -119 -21 -156 0 -92 21 -125 105 -165 34 -16 67
-30 71 -30 15 0 107 -181 129 -250 25 -84 79 -141 149 -159 73 -18 135 1 205
61 18 16 35 27 38 25 2 -3 -8 -51 -23 -108 -32 -120 -29 -151 17 -174 34 -18
37 -17 169 32 236 88 503 248 649 388 140 134 245 293 258 393 5 34 2 44 -20
66 -28 28 -71 34 -98 13 -9 -7 -33 -49 -53 -93 l-37 -81 -177 -16 c-153 -15
-179 -20 -199 -39 -13 -12 -23 -33 -23 -49 0 -82 50 -99 213 -74 15 3 27 1 27
-3 0 -12 -117 -104 -196 -154 -132 -84 -338 -188 -350 -176 -3 3 12 68 32 144
l37 139 87 90 c47 50 109 123 138 164 l52 74 0 85 c0 190 -69 288 -155 221
-24 -20 -26 -26 -21 -68 4 -25 9 -80 12 -122 l6 -75 -95 -105 c-156 -172 -413
-409 -442 -409 -20 0 -42 33 -55 80 -16 64 -128 266 -162 295 -16 14 -51 32
-78 42 -60 21 -60 22 -29 174 32 157 36 138 -125 593 -45 126 -53 157 -39 151
140 -61 273 -72 588 -50 172 12 302 16 433 12 191 -6 275 -19 371 -57 65 -25
92 -25 119 0 79 73 6 145 -194 191 -125 28 -410 36 -659 18 -501 -37 -659 2
-673 165 -8 104 49 214 186 359 51 53 89 105 110 148 59 123 175 206 339 243
119 27 123 26 205 -57 92 -92 169 -132 353 -185 228 -66 376 -138 420 -206 9
-13 19 -56 22 -94 l6 -71 -69 25 c-119 44 -261 73 -499 104 -423 56 -474 66
-606 126 -67 30 -80 33 -108 23 -35 -12 -51 -35 -51 -73 0 -43 11 -56 69 -85
136 -68 255 -95 656 -146 347 -44 536 -98 620 -176 39 -37 40 -39 40 -106 -1
-84 -25 -134 -101 -215 -87 -91 -75 -119 83 -204 l106 -57 136 18 c115 15 139
22 159 42 32 33 28 88 -11 117 -27 20 -29 20 -139 4 -98 -15 -115 -15 -140 -2
-15 8 -28 17 -28 19 0 3 14 24 30 47 75 103 91 277 35 374 -27 47 -28 56 -30
184 -2 150 -13 194 -65 260 -70 88 -251 179 -489 246 -136 39 -181 58 -255
112 -60 44 -53 51 66 77 102 22 226 15 299 -17 62 -26 122 -93 144 -159 25
-75 85 -97 137 -52 27 24 29 58 8 116 -47 126 -144 219 -268 257 -65 20 -234
34 -297 24z"/>
<path d="M5004 4444 c-6 -3 -327 -324 -714 -715 l-703 -710 -23 -122 -24 -121
-92 -94 c-110 -111 -195 -184 -185 -160 3 9 45 70 94 134 71 95 87 123 87 151
0 43 -32 73 -78 73 -26 0 -58 -22 -176 -121 -80 -67 -185 -148 -234 -180 -82
-55 -238 -137 -294 -154 -22 -6 -23 -5 -17 17 17 55 83 174 125 226 98 121
281 255 461 337 39 18 79 41 89 52 10 10 218 296 464 637 321 445 446 626 446
645 0 57 -56 93 -109 71 -18 -7 -168 -208 -468 -623 l-441 -612 -124 -62
c-268 -136 -455 -317 -566 -550 -27 -58 -36 -91 -40 -147 -4 -70 -3 -74 28
-109 68 -78 161 -68 377 42 43 22 107 59 142 83 l65 44 21 -40 c45 -85 152
-111 236 -58 24 16 108 91 186 168 150 147 148 145 178 278 l6 29 307 -7 c300
-7 307 -7 329 13 12 11 24 30 28 41 10 31 -13 77 -43 88 -15 6 -142 14 -282
19 l-254 8 657 661 c626 630 657 664 657 698 0 46 -29 76 -72 75 -18 0 -38 -3
-44 -5z"/>
<path d="M4988 3343 c-20 -16 -179 -161 -353 -323 l-316 -295 -57 5 c-31 3
-106 5 -167 5 -137 -1 -185 -18 -336 -120 -293 -198 -407 -324 -381 -419 27
-98 98 -167 194 -193 63 -16 293 -17 423 -3 184 21 352 88 494 195 41 31 189
123 329 203 139 81 265 157 278 169 48 44 13 133 -53 133 -34 0 -579 -316
-643 -373 -60 -53 -183 -111 -305 -144 -91 -24 -117 -26 -297 -27 -185 -1
-198 0 -225 20 -46 34 -41 55 28 117 75 69 286 220 353 254 65 33 131 38 281
23 l126 -13 32 24 c54 40 714 658 721 675 16 42 1 80 -41 102 -32 17 -46 15
-85 -15z"/>
</g>
</svg>
