<?xml version="1.0" standalone="no"?>
<!DOCTYPE svg PUBLIC "-//W3C//DTD SVG 20010904//EN"
 "http://www.w3.org/TR/2001/REC-SVG-20010904/DTD/svg10.dtd">
<svg version="1.0" xmlns="http://www.w3.org/2000/svg"
 width="512.000000pt" height="512.000000pt" viewBox="0 0 512.000000 512.000000"
 preserveAspectRatio="xMidYMid meet">

<g transform="translate(0.000000,512.000000) scale(0.100000,-0.100000)"
fill="#bd9678" stroke="none">
<path d="M2485 5100 c-49 -24 -564 -539 -590 -589 -25 -50 -17 -129 20 -176
35 -47 78 -65 155 -65 l60 0 0 -345 0 -345 -255 0 -255 0 2 173 3 172 75 5
c84 7 119 24 149 74 27 45 34 88 21 138 -10 37 -47 79 -288 322 -279 280 -322
316 -387 316 -65 0 -108 -35 -386 -316 -295 -297 -308 -315 -294 -392 17 -93
68 -134 175 -142 l75 -5 0 -170 0 -170 -295 -5 -295 -5 -47 -28 c-55 -32 -92
-76 -113 -136 -21 -60 -22 -525 -1 -574 16 -39 61 -82 99 -96 20 -8 763 -11
2448 -11 2032 0 2425 2 2452 14 39 16 82 61 96 99 7 17 11 125 11 276 0 268
-5 301 -56 368 -13 18 -46 45 -72 60 l-47 28 -295 5 -295 5 0 170 0 170 75 5
c107 8 158 49 175 142 14 77 1 95 -294 392 -278 281 -321 316 -386 316 -65 0
-108 -36 -387 -316 -239 -241 -278 -285 -288 -322 -19 -72 3 -135 64 -183 23
-18 47 -24 105 -29 l76 -5 3 -172 2 -173 -255 0 -255 0 0 344 0 344 74 4 c111
5 166 53 174 152 4 46 0 62 -21 98 -38 63 -543 563 -589 583 -50 20 -95 19
-143 -5z m485 -660 c-78 -4 -123 -14 -142 -33 -2 -1 -5 -263 -8 -582 l-5 -580
-255 0 -255 0 -5 580 c-3 319 -6 581 -8 582 -19 19 -64 29 -141 33 l-94 5 248
253 248 253 256 -253 256 -253 -95 -5z m-1371 -341 c-95 -5 -103 -7 -125 -33
l-24 -27 0 -400 0 -399 -255 0 -255 0 0 389 c0 234 -4 400 -10 416 -14 38 -65
55 -162 55 l-83 0 255 255 255 255 253 -252 252 -253 -101 -6z m2739 1 c-102
-6 -134 -18 -148 -56 -6 -15 -10 -192 -10 -415 l0 -389 -255 0 -255 0 0 399 0
400 -24 28 c-22 26 -29 27 -126 31 l-102 4 253 254 254 254 253 -252 252 -253
-92 -5z m-3568 -795 c0 -72 5 -115 14 -133 21 -41 68 -81 107 -92 44 -13 563
-13 609 0 41 11 94 61 109 103 6 16 11 73 11 128 l0 99 255 0 255 0 0 -92 c1
-139 26 -193 105 -229 36 -17 70 -19 325 -19 255 0 289 2 325 19 79 36 104 90
105 229 l0 92 255 0 255 0 0 -99 c0 -55 5 -112 11 -128 15 -42 68 -92 109
-103 46 -13 565 -13 609 0 39 11 86 51 107 92 9 18 14 61 14 133 l0 105 269 0
c148 0 277 -3 286 -6 39 -15 45 -54 45 -284 l0 -220 -2390 0 -2390 0 0 220 c0
226 6 269 42 283 7 3 136 6 286 6 l272 1 0 -105z"/>
<path d="M105 2546 c-37 -17 -80 -62 -94 -99 -7 -19 -11 -226 -11 -621 l0
-592 22 -44 c13 -24 35 -52 49 -63 55 -40 461 -127 764 -163 115 -14 225 -18
470 -19 434 0 628 22 1105 129 593 132 883 176 1302 198 250 13 628 3 998 -28
243 -20 296 -17 343 19 68 52 68 49 65 648 l-3 535 -25 37 c-14 21 -43 46 -66
57 -40 20 -66 20 -2465 20 -2003 -1 -2429 -3 -2454 -14z m4845 -651 c0 -465
-1 -495 -17 -495 -10 0 -135 9 -278 20 -352 27 -791 36 -1025 21 -346 -23
-574 -57 -1090 -166 -394 -82 -484 -99 -660 -124 -427 -59 -876 -53 -1294 19
-112 19 -389 84 -407 96 -5 3 -9 257 -9 565 l0 559 2390 0 2390 0 0 -495z"/>
<path d="M475 2208 c-78 -42 -49 -158 39 -158 47 0 90 50 82 94 -11 59 -72 91
-121 64z"/>
<path d="M815 2208 c-76 -44 -49 -159 37 -158 37 1 59 14 76 47 19 35 14 63
-17 94 -31 30 -63 36 -96 17z"/>
<path d="M1139 2191 c-69 -70 2 -171 96 -135 19 8 45 55 45 84 0 31 -53 80
-85 80 -16 0 -38 -12 -56 -29z"/>
<path d="M1479 2191 c-40 -40 -36 -93 10 -128 48 -37 131 6 131 67 0 40 -47
90 -85 90 -16 0 -38 -12 -56 -29z"/>
<path d="M1826 2198 c-40 -35 -43 -78 -11 -116 34 -41 84 -44 120 -7 75 74
-31 192 -109 123z"/>
<path d="M2180 2207 c-54 -27 -61 -99 -13 -137 71 -55 160 19 127 105 -7 17
-54 45 -76 45 -7 0 -24 -6 -38 -13z"/>
<path d="M2522 2210 c-27 -11 -51 -62 -44 -96 6 -32 47 -64 82 -64 35 0 76 32
82 64 7 36 -17 85 -47 96 -31 12 -42 12 -73 0z"/>
<path d="M2865 2209 c-52 -30 -62 -93 -20 -134 31 -32 75 -32 111 -1 35 29 39
86 8 116 -24 25 -73 34 -99 19z"/>
<path d="M3205 2208 c-77 -44 -49 -158 39 -158 47 0 90 50 82 94 -11 59 -73
91 -121 64z"/>
<path d="M3531 2194 c-24 -20 -31 -34 -31 -60 0 -89 116 -116 158 -37 19 35
14 63 -17 94 -36 36 -70 37 -110 3z"/>
<path d="M3869 2191 c-32 -33 -36 -58 -14 -100 37 -73 155 -43 155 39 0 40
-47 90 -85 90 -16 0 -38 -12 -56 -29z"/>
<path d="M4209 2191 c-31 -31 -36 -59 -17 -94 17 -33 39 -46 76 -47 87 -1 113
117 35 158 -35 19 -63 14 -94 -17z"/>
<path d="M4556 2198 c-40 -35 -43 -78 -11 -116 65 -77 175 -3 139 93 -8 19
-55 45 -83 45 -11 0 -31 -10 -45 -22z"/>
<path d="M625 1935 c-66 -65 9 -173 92 -133 15 7 34 26 41 41 40 83 -68 158
-133 92z"/>
<path d="M965 1935 c-35 -34 -33 -78 5 -117 26 -25 36 -29 63 -24 36 7 77 47
77 77 0 28 -26 75 -45 83 -35 13 -76 6 -100 -19z"/>
<path d="M1305 1935 c-35 -34 -33 -78 4 -116 38 -38 74 -38 112 0 56 57 23
141 -56 141 -25 0 -44 -8 -60 -25z"/>
<path d="M1659 1947 c-21 -16 -39 -51 -39 -76 0 -29 40 -70 76 -77 44 -8 94
35 94 82 0 65 -81 109 -131 71z"/>
<path d="M1985 1928 c-21 -25 -25 -38 -21 -62 8 -39 31 -63 66 -71 80 -18 134
82 75 140 -36 37 -86 34 -120 -7z"/>
<path d="M2333 1938 c-30 -34 -34 -55 -18 -94 35 -85 155 -59 155 35 0 31 -6
44 -26 60 -36 28 -85 27 -111 -1z"/>
<path d="M2676 1939 c-20 -16 -26 -29 -26 -60 0 -94 120 -120 155 -35 35 83
-57 151 -129 95z"/>
<path d="M3015 1935 c-17 -16 -25 -35 -25 -57 1 -106 145 -116 166 -12 4 24 0
37 -21 62 -34 41 -84 44 -120 7z"/>
<path d="M3355 1935 c-37 -36 -34 -86 7 -120 38 -32 81 -29 116 11 69 78 -49
184 -123 109z"/>
<path d="M3695 1935 c-35 -34 -33 -78 4 -116 39 -38 74 -38 113 1 26 27 30 36
25 68 -12 70 -92 97 -142 47z"/>
<path d="M4052 1953 c-17 -6 -42 -57 -42 -83 0 -31 53 -80 85 -80 38 0 85 50
85 90 0 58 -68 97 -128 73z"/>
<path d="M4382 1940 c-45 -42 -34 -112 21 -138 83 -40 158 68 92 133 -30 31
-82 33 -113 5z"/>
<path d="M490 1703 c-58 -21 -77 -88 -39 -137 38 -48 124 -28 144 34 10 31
-13 79 -46 95 -30 16 -35 17 -59 8z"/>
<path d="M824 1700 c-55 -22 -70 -95 -29 -135 40 -41 105 -33 131 17 36 69
-32 148 -102 118z"/>
<path d="M1164 1700 c-55 -22 -70 -95 -29 -135 51 -52 145 -16 145 54 0 57
-66 102 -116 81z"/>
<path d="M1503 1700 c-56 -23 -68 -111 -20 -145 54 -38 137 0 137 64 0 57 -66
102 -117 81z"/>
<path d="M1840 1697 c-32 -16 -54 -61 -46 -93 24 -95 166 -79 166 19 0 59 -68
101 -120 74z"/>
<path d="M2179 1696 c-31 -18 -52 -61 -43 -90 29 -97 164 -84 164 15 0 62 -68
103 -121 75z"/>
<path d="M2525 1698 c-51 -27 -62 -98 -22 -136 51 -48 137 -13 137 55 0 45 -9
62 -41 78 -33 18 -47 18 -74 3z"/>
<path d="M2871 1699 c-34 -14 -50 -39 -51 -80 -1 -98 135 -108 164 -12 9 29
-16 76 -49 91 -30 14 -32 14 -64 1z"/>
<path d="M3220 1703 c-35 -13 -60 -47 -60 -80 0 -86 117 -116 156 -41 18 34
11 78 -14 101 -20 18 -61 28 -82 20z"/>
<path d="M3554 1700 c-55 -22 -70 -95 -29 -135 49 -50 130 -24 141 46 10 61
-56 113 -112 89z"/>
<path d="M3894 1700 c-55 -22 -70 -95 -29 -135 51 -52 145 -16 145 54 0 57
-66 102 -116 81z"/>
<path d="M4230 1697 c-79 -40 -53 -157 35 -157 73 0 110 80 63 134 -28 31 -65
40 -98 23z"/>
<path d="M4563 1691 c-39 -24 -50 -68 -29 -109 17 -34 34 -42 81 -42 66 0 101
92 53 138 -34 31 -68 35 -105 13z"/>
<path d="M625 1425 c-50 -50 -23 -130 47 -142 32 -5 41 -1 68 25 39 39 39 74
1 113 -38 37 -82 39 -116 4z"/>
<path d="M966 1425 c-56 -52 -15 -145 64 -145 30 0 80 53 80 85 0 37 -50 85
-88 85 -17 0 -40 -10 -56 -25z"/>
<path d="M1324 1438 c-24 -11 -44 -48 -44 -79 0 -11 13 -34 29 -50 45 -44 108
-33 131 22 32 76 -42 143 -116 107z"/>
<path d="M1649 1421 c-17 -18 -29 -40 -29 -56 0 -32 49 -85 80 -85 29 0 76 26
84 45 13 35 6 76 -19 100 -34 35 -78 33 -116 -4z"/>
<path d="M1994 1426 c-58 -49 -20 -146 57 -146 43 0 79 39 79 85 0 74 -80 110
-136 61z"/>
<path d="M3685 1103 c-323 -14 -746 -79 -1265 -193 -550 -121 -777 -147 -1208
-137 -337 8 -586 40 -912 118 -146 35 -184 32 -237 -14 -62 -54 -63 -62 -63
-417 0 -348 2 -361 56 -412 16 -15 42 -32 57 -37 40 -15 4854 -15 4894 0 38
14 83 57 99 96 11 26 14 113 14 420 0 441 -1 447 -78 498 -38 25 -53 28 -279
45 -455 36 -787 46 -1078 33z m611 -174 c124 -6 321 -18 437 -27 l212 -17 3
-357 2 -358 -2390 0 -2390 0 0 291 c0 159 3 288 8 285 17 -10 337 -77 460 -96
444 -68 944 -66 1382 5 85 14 265 50 400 80 813 180 1245 225 1876 194z"/>
<path d="M2950 757 c-55 -28 -64 -94 -18 -137 19 -18 35 -20 140 -20 113 0
120 1 143 25 42 41 31 105 -22 133 -29 16 -211 15 -243 -1z"/>
<path d="M3460 757 c-52 -26 -60 -89 -18 -134 20 -21 30 -23 138 -23 104 0
120 2 144 21 19 15 26 30 26 54 0 47 -8 64 -41 80 -36 19 -213 20 -249 2z"/>
<path d="M3975 758 c-32 -17 -45 -39 -45 -79 0 -29 6 -42 26 -58 24 -19 40
-21 144 -21 108 0 118 2 137 23 11 12 24 32 27 44 9 30 -19 81 -50 93 -34 13
-214 12 -239 -2z"/>
<path d="M4485 758 c-51 -29 -61 -93 -20 -133 23 -24 30 -25 143 -25 105 0
121 2 140 20 46 43 37 109 -18 137 -32 16 -218 17 -245 1z"/>
<path d="M625 485 c-17 -16 -25 -35 -25 -57 1 -70 38 -88 175 -88 104 0 107 1
136 29 31 31 36 59 17 94 -22 42 -38 46 -161 47 -112 0 -119 -1 -142 -25z"/>
<path d="M1135 485 c-35 -34 -33 -78 4 -116 29 -29 31 -29 141 -29 110 0 112
0 141 29 37 38 39 82 4 116 -23 24 -30 25 -145 25 -115 0 -122 -1 -145 -25z"/>
<path d="M1659 497 c-46 -35 -50 -88 -10 -128 29 -28 32 -29 136 -29 137 0
174 18 175 88 0 22 -8 41 -25 57 -23 24 -30 25 -142 25 -77 -1 -124 -5 -134
-13z"/>
<path d="M2164 486 c-36 -30 -39 -86 -6 -119 20 -19 35 -22 123 -25 55 -2 111
-1 125 2 66 17 89 105 38 145 -23 18 -41 21 -140 21 -104 0 -115 -2 -140 -24z"/>
<path d="M2676 489 c-32 -26 -36 -84 -7 -120 18 -23 25 -24 145 -24 116 0 127
2 148 22 33 33 30 89 -6 119 -25 22 -36 24 -140 24 -99 0 -117 -3 -140 -21z"/>
<path d="M3185 485 c-17 -16 -25 -35 -25 -57 1 -70 38 -88 175 -88 104 0 107
1 136 29 31 31 36 59 17 94 -22 42 -38 46 -161 47 -112 0 -119 -1 -142 -25z"/>
<path d="M3695 485 c-35 -34 -33 -78 4 -116 29 -29 31 -29 141 -29 110 0 112
0 141 29 37 38 39 82 4 116 -23 24 -30 25 -145 25 -115 0 -122 -1 -145 -25z"/>
<path d="M4219 497 c-46 -35 -50 -88 -10 -128 29 -28 32 -29 136 -29 137 0
174 18 175 88 0 22 -8 41 -25 57 -23 24 -30 25 -142 25 -77 -1 -124 -5 -134
-13z"/>
</g>
</svg>
