<?xml version="1.0" standalone="no"?>
<!DOCTYPE svg PUBLIC "-//W3C//DTD SVG 20010904//EN"
 "http://www.w3.org/TR/2001/REC-SVG-20010904/DTD/svg10.dtd">
<svg version="1.0" xmlns="http://www.w3.org/2000/svg"
 width="512.000000pt" height="512.000000pt" viewBox="0 0 512.000000 512.000000"
 preserveAspectRatio="xMidYMid meet">

<g transform="translate(0.000000,512.000000) scale(0.100000,-0.100000)"
fill="#bd9678" stroke="none">
<path d="M4626 5110 c-110 -28 -93 -11 -1453 -1373 l-1302 -1302 -215 -433
c-236 -474 -239 -481 -187 -533 53 -52 59 -50 538 190 l438 220 1306 1308
c1240 1242 1307 1311 1335 1373 25 57 29 77 29 161 0 90 -2 99 -37 171 -68
136 -188 217 -336 224 -42 2 -94 -1 -116 -6z m204 -224 c59 -39 85 -89 85
-166 0 -50 -5 -73 -22 -100 -12 -19 -178 -190 -368 -380 l-345 -345 0 286 0
285 218 216 c157 157 227 219 252 227 54 16 136 6 180 -23z m-1280 -1621
l-430 -430 0 285 0 285 428 428 427 427 3 -282 2 -283 -430 -430z m-895 -895
l-265 -265 -142 143 -143 142 405 405 405 405 3 -282 2 -283 -265 -265z m-550
-270 c60 -60 107 -111 104 -114 -12 -11 -432 -217 -436 -213 -5 6 209 437 217
437 3 0 55 -49 115 -110z"/>
<path d="M1295 1279 c-666 -66 -1223 -124 -1238 -131 -47 -18 -57 -53 -57
-193 0 -165 19 -256 77 -375 39 -79 60 -109 132 -180 170 -169 384 -237 616
-196 313 55 449 86 471 107 63 59 22 168 -63 169 -17 0 -123 -18 -235 -40
-261 -51 -315 -56 -401 -36 -191 45 -333 183 -382 371 -19 74 -20 195 -2 195
6 0 53 5 102 10 50 5 279 28 510 50 677 66 796 78 1278 125 527 52 688 57 869
26 205 -36 420 -112 574 -204 80 -47 734 -491 730 -495 -2 -1 -126 43 -277 97
-406 147 -592 187 -914 198 -267 8 -337 0 -904 -108 -123 -24 -154 -41 -167
-94 -10 -40 19 -93 60 -110 31 -13 53 -11 287 34 389 75 392 76 644 76 400 -1
480 -21 1338 -334 363 -133 668 -241 678 -241 73 0 121 84 86 148 -11 18
-1002 703 -1357 938 -200 131 -437 230 -675 280 -104 22 -150 26 -345 29
l-225 4 -1210 -120z"/>
<path d="M1621 556 c-87 -48 -50 -186 49 -186 51 0 100 49 100 99 0 75 -83
124 -149 87z"/>
</g>
</svg>
