<?xml version="1.0" standalone="no"?>
<!DOCTYPE svg PUBLIC "-//W3C//DTD SVG 20010904//EN"
 "http://www.w3.org/TR/2001/REC-SVG-20010904/DTD/svg10.dtd">
<svg version="1.0" xmlns="http://www.w3.org/2000/svg"
 width="512.000000pt" height="512.000000pt" viewBox="0 0 512.000000 512.000000"
 preserveAspectRatio="xMidYMid meet">

<g transform="translate(0.000000,512.000000) scale(0.100000,-0.100000)"
fill="#bd9678" stroke="none">
<path d="M1705 5105 c-162 -26 -330 -88 -443 -162 -138 -91 -282 -261 -352
-415 -34 -76 -70 -207 -70 -255 0 -44 30 -73 74 -73 39 0 76 37 76 75 0 40 41
157 82 237 129 249 365 403 687 449 99 14 282 6 386 -16 319 -68 623 -261 782
-495 40 -59 59 -105 89 -215 13 -52 31 -96 41 -103 29 -21 83 -11 106 20 l20
27 -22 93 c-43 176 -111 291 -255 433 -187 184 -460 330 -721 385 -133 28
-358 35 -480 15z"/>
<path d="M1596 4735 c-197 -50 -351 -201 -406 -399 -17 -59 -17 -60 -107 -116
-360 -227 -579 -485 -688 -813 -46 -139 -65 -258 -65 -412 0 -206 36 -368 127
-565 38 -82 39 -87 32 -155 -5 -38 -11 -182 -15 -320 -5 -202 -3 -273 10 -370
17 -134 51 -279 71 -311 28 -44 105 -37 127 11 9 20 6 45 -15 132 -14 60 -31
149 -36 198 -15 123 -13 399 3 580 12 133 19 163 56 265 23 63 53 133 65 156
54 94 177 175 530 352 284 142 408 211 556 309 l97 64 103 -64 c169 -104 304
-177 326 -177 11 0 32 10 47 21 22 17 27 28 24 58 -3 41 -8 44 -234 176 -179
104 -590 377 -677 449 -127 106 -194 225 -204 362 -11 141 59 283 178 363 74
50 111 61 215 68 104 7 210 -19 348 -85 98 -47 457 -263 641 -385 306 -205
473 -376 585 -602 82 -166 111 -278 117 -466 7 -172 -6 -273 -49 -408 l-30
-94 -38 81 c-49 104 -115 174 -245 261 -126 84 -334 191 -373 191 -54 0 -88
-61 -62 -111 6 -11 66 -47 133 -80 137 -69 264 -149 327 -205 53 -48 79 -94
129 -230 43 -118 53 -187 67 -442 l7 -124 -381 -381 c-259 -260 -386 -394
-397 -419 -45 -111 10 -237 125 -286 47 -20 139 -18 181 3 19 10 88 70 153
134 119 116 124 114 37 -9 -197 -279 -550 -584 -836 -721 -129 -62 -189 -76
-262 -61 -120 25 -353 159 -553 318 -119 95 -343 323 -415 423 -122 170 -119
166 -154 169 -41 4 -81 -29 -81 -68 0 -31 92 -170 190 -286 318 -373 825 -714
1065 -714 107 0 302 83 489 208 438 292 782 699 901 1065 l27 82 366 367 367
368 40 -39 c60 -57 85 -71 128 -71 36 0 47 8 143 102 135 135 143 168 59 257
l-44 46 164 166 c182 184 204 218 205 312 0 69 -19 120 -63 165 -67 70 -152
94 -244 67 -54 -16 -69 -28 -233 -190 l-175 -174 -53 50 c-46 42 -59 49 -94
49 -39 0 -47 -6 -149 -106 -69 -68 -110 -117 -114 -135 -9 -38 16 -86 70 -139
l45 -44 -177 -178 c-98 -98 -181 -178 -185 -178 -5 0 -8 24 -8 53 0 28 -5 93
-10 142 l-9 90 49 111 c85 193 120 356 120 565 0 452 -201 819 -624 1135 -118
89 -557 367 -729 462 -59 33 -158 77 -220 97 -97 32 -127 38 -222 41 -75 3
-129 -1 -169 -11z m-346 -833 c63 -119 184 -229 438 -397 56 -37 102 -71 102
-76 0 -24 -265 -175 -595 -338 -385 -190 -519 -292 -594 -452 l-38 -80 -21 58
c-57 155 -79 330 -62 492 38 384 235 684 620 943 l74 50 21 -69 c12 -37 36
-96 55 -131z m3368 -978 c14 -16 22 -38 22 -62 0 -35 -11 -48 -165 -202 l-165
-165 -65 65 -65 65 147 148 c82 82 162 158 178 168 38 25 82 18 113 -17z
m-473 -474 l210 -210 -48 -47 -47 -48 -212 212 -213 213 45 45 c24 25 47 45
50 45 3 0 100 -94 215 -210z m-783 -882 c-506 -506 -633 -628 -653 -628 -41 0
-79 36 -79 73 0 29 61 93 627 659 l628 628 53 -53 52 -52 -628 -627z"/>
<path d="M927 2192 c-29 -32 -21 -80 19 -120 l37 -37 -27 -46 c-39 -71 -34
-112 17 -134 48 -20 80 -3 114 61 23 44 32 54 48 50 11 -3 25 -6 31 -6 6 0 14
-27 17 -61 6 -72 29 -102 76 -102 51 0 71 27 71 94 0 63 1 64 45 73 28 6 32 3
58 -48 34 -64 66 -81 114 -61 51 22 56 63 17 134 l-27 46 37 37 c40 40 47 78
20 116 -25 35 -74 29 -135 -17 -124 -94 -275 -94 -397 -1 -59 45 -107 53 -135
22z"/>
<path d="M2295 2190 c-31 -34 -24 -78 18 -117 l37 -33 -25 -50 c-14 -27 -25
-59 -25 -70 0 -52 48 -88 95 -70 20 8 75 79 87 113 2 4 18 5 36 1 31 -6 32 -8
32 -60 0 -67 30 -107 80 -107 48 0 70 31 70 99 0 57 1 58 42 68 25 6 30 2 58
-48 34 -60 67 -79 111 -64 16 5 32 22 39 39 12 27 10 37 -15 89 l-28 59 37 34
c90 86 -7 188 -104 108 -73 -59 -118 -76 -210 -76 -74 0 -92 4 -142 29 -32 16
-67 39 -79 52 -29 31 -88 33 -114 4z"/>
<path d="M1775 1545 c-31 -30 -32 -64 -4 -99 45 -57 155 -89 235 -67 55 15
120 63 128 96 9 36 -13 77 -47 89 -24 9 -37 6 -79 -18 -56 -32 -91 -31 -135 4
-34 27 -69 25 -98 -5z"/>
<path d="M3631 1423 c-26 -22 -83 -141 -155 -321 -111 -279 -137 -421 -98
-548 64 -206 261 -301 432 -208 65 35 105 81 143 162 44 94 47 177 13 313 -44
178 -195 549 -243 597 -27 26 -63 28 -92 5z m157 -523 c40 -117 46 -146 46
-220 1 -75 -2 -90 -26 -132 -51 -85 -138 -113 -209 -65 -49 32 -89 116 -89
186 0 88 59 283 140 466 l23 50 34 -75 c19 -41 56 -136 81 -210z"/>
<path d="M1685 965 c-39 -38 -29 -78 32 -129 64 -54 119 -71 228 -71 88 0 106
3 155 27 110 54 151 127 100 178 -27 27 -72 25 -108 -5 -89 -75 -198 -74 -298
1 -40 31 -78 30 -109 -1z"/>
</g>
</svg>
