<?xml version="1.0" standalone="no"?>
<!DOCTYPE svg PUBLIC "-//W3C//DTD SVG 20010904//EN"
 "http://www.w3.org/TR/2001/REC-SVG-20010904/DTD/svg10.dtd">
<svg version="1.0" xmlns="http://www.w3.org/2000/svg"
 width="512.000000pt" height="512.000000pt" viewBox="0 0 512.000000 512.000000"
 preserveAspectRatio="xMidYMid meet">

<g transform="translate(0.000000,512.000000) scale(0.100000,-0.100000)"
fill="#bd9678" stroke="none">
<path d="M2290 5024 c-282 -39 -555 -144 -792 -306 -136 -93 -162 -135 -117
-192 29 -36 79 -36 128 3 20 16 74 53 121 84 295 191 622 278 990 264 215 -8
373 -38 560 -105 l75 -27 -85 -8 c-364 -32 -561 -84 -755 -200 -101 -59 -225
-174 -278 -257 -35 -55 -35 -55 -134 -87 -394 -124 -679 -407 -837 -829 -65
-175 -123 -423 -142 -607 l-7 -65 -59 -14 c-32 -8 -60 -12 -62 -9 -2 3 -12 51
-22 106 -13 73 -17 150 -17 285 0 199 16 331 59 503 31 126 31 150 -2 176 -58
45 -112 17 -137 -71 -92 -326 -108 -674 -45 -996 l21 -112 -21 -23 c-28 -30
-69 -114 -81 -167 -24 -104 0 -247 61 -363 42 -80 183 -223 259 -262 l56 -28
27 -126 c72 -328 208 -640 384 -878 562 -757 1435 -844 2068 -205 269 271 466
652 560 1083 l27 126 56 28 c76 39 217 182 259 262 61 116 85 259 61 363 -12
53 -53 137 -81 167 l-21 23 22 112 c68 354 43 727 -75 1088 -261 798 -941
1286 -1786 1279 -73 -1 -180 -7 -238 -15z m1288 -471 c18 -9 81 -61 138 -116
295 -282 472 -652 535 -1117 19 -140 16 -423 -5 -545 -10 -55 -21 -104 -25
-108 -5 -4 -32 -2 -62 6 -45 11 -54 17 -57 38 -94 843 -447 1345 -1058 1504
-155 40 -333 58 -536 53 l-180 -3 54 50 c145 134 411 228 718 255 155 13 435
3 478 -17z m-768 -457 c331 -44 574 -166 760 -382 33 -38 60 -72 60 -75 0 -3
-41 9 -91 28 -429 161 -1057 216 -1532 133 -145 -25 -289 -63 -402 -105 -49
-19 -91 -32 -93 -31 -1 2 17 26 40 54 177 206 428 333 748 377 128 17 381 18
510 1z m-69 -427 c343 -27 674 -110 935 -233 105 -50 105 -50 152 -196 57
-174 99 -378 118 -575 10 -105 31 -134 95 -135 68 0 167 -38 208 -79 153 -153
41 -461 -211 -583 -42 -21 -81 -45 -86 -55 -5 -10 -15 -49 -21 -88 -20 -119
-80 -334 -127 -455 -275 -704 -843 -1113 -1410 -1015 -575 101 -1049 665
-1194 1420 -12 61 -25 120 -30 132 -5 13 -35 35 -69 52 -128 63 -205 135 -255
237 -110 225 -3 433 223 434 75 1 95 26 105 135 26 265 120 646 177 719 10 13
63 47 116 74 347 177 787 250 1274 211z"/>
<path d="M1850 2972 c-103 -35 -172 -84 -232 -166 -51 -70 -25 -146 51 -146
32 0 35 2 109 84 52 57 105 80 187 80 89 0 131 -21 207 -103 48 -52 61 -61 90
-61 43 0 78 34 78 77 0 64 -121 183 -227 224 -80 30 -191 35 -263 11z"/>
<path d="M3030 2971 c-89 -28 -178 -97 -234 -181 -40 -61 -7 -130 63 -130 36
0 43 5 83 57 60 79 118 108 218 108 64 0 82 -4 122 -28 26 -15 60 -44 75 -64
49 -63 62 -73 96 -73 42 0 77 35 77 77 0 42 -67 132 -133 177 -105 72 -250 95
-367 57z"/>
<path d="M1612 2327 c-53 -56 -16 -120 102 -176 84 -41 134 -51 251 -51 117 0
167 10 251 51 119 57 155 119 99 174 -32 33 -68 32 -125 -5 -73 -47 -123 -60
-226 -60 -102 0 -172 19 -234 65 -43 32 -89 33 -118 2z"/>
<path d="M2802 2327 c-51 -54 -15 -119 94 -173 80 -39 150 -54 259 -54 149 0
268 38 347 111 38 36 39 89 2 118 -34 27 -68 27 -106 -1 -68 -48 -137 -68
-240 -68 -106 0 -175 19 -238 65 -43 32 -89 33 -118 2z"/>
<path d="M2022 1383 c-21 -8 -43 -61 -36 -87 7 -27 99 -123 157 -162 66 -44
180 -94 252 -109 83 -17 228 -19 311 -4 132 24 275 102 374 203 45 47 54 62
54 92 0 44 -31 74 -76 74 -22 0 -46 -15 -96 -60 -114 -103 -257 -160 -402
-160 -145 0 -292 59 -404 161 -63 58 -92 69 -134 52z"/>
<path d="M4585 4855 c-14 -13 -25 -32 -25 -42 0 -27 -64 -153 -97 -192 -16
-19 -52 -46 -79 -60 -87 -47 -87 -116 1 -163 28 -15 63 -42 79 -60 32 -38 96
-164 96 -191 0 -29 45 -67 80 -67 35 0 80 38 80 67 0 27 64 153 97 192 16 19
52 46 79 60 87 47 87 116 -1 163 -28 15 -63 42 -79 60 -32 38 -96 164 -96 191
0 29 -45 67 -80 67 -19 0 -40 -9 -55 -25z m65 -274 c0 -4 18 -29 41 -55 l41
-46 -35 -39 c-19 -21 -40 -47 -46 -57 -11 -19 -11 -19 -22 0 -6 10 -27 36 -46
57 l-35 39 41 46 c23 26 41 51 41 55 0 5 5 9 10 9 6 0 10 -4 10 -9z"/>
<path d="M913 4785 c-12 -8 -29 -39 -38 -68 -48 -146 -136 -260 -240 -312
-103 -52 -103 -118 0 -170 105 -52 192 -165 240 -312 18 -57 45 -83 85 -83 40
0 67 26 85 83 48 146 136 260 240 312 103 51 103 119 1 168 -103 49 -192 166
-241 314 -18 57 -45 83 -85 83 -14 0 -35 -7 -47 -15z m72 -314 c8 -16 40 -57
71 -90 l56 -61 -56 -61 c-31 -33 -63 -74 -71 -90 -9 -16 -20 -29 -25 -29 -5 0
-16 13 -25 29 -8 16 -40 57 -71 90 l-56 61 56 61 c31 33 63 74 71 90 9 16 20
29 25 29 5 0 16 -13 25 -29z"/>
<path d="M4593 1745 c-12 -8 -29 -39 -38 -68 -48 -146 -136 -260 -240 -312
-67 -34 -86 -65 -69 -112 7 -20 27 -37 69 -58 105 -52 192 -165 240 -312 18
-57 45 -83 85 -83 40 0 67 26 85 83 48 146 136 260 240 312 103 51 103 119 1
168 -103 49 -192 166 -241 314 -18 57 -45 83 -85 83 -14 0 -35 -7 -47 -15z
m72 -314 c8 -16 40 -57 71 -90 l56 -61 -56 -61 c-31 -33 -63 -74 -71 -90 -19
-37 -31 -37 -50 0 -8 16 -40 57 -71 90 l-56 61 56 61 c31 33 63 74 71 90 19
37 31 37 50 0z"/>
<path d="M593 1425 c-12 -8 -29 -39 -38 -68 -10 -28 -40 -97 -68 -152 -42 -82
-67 -116 -137 -186 -61 -62 -102 -93 -145 -113 -104 -47 -110 -51 -119 -79
-13 -36 2 -78 34 -94 14 -6 52 -24 85 -39 95 -43 216 -172 281 -299 29 -55 59
-124 69 -152 18 -57 45 -83 85 -83 40 0 67 26 85 83 24 72 88 200 130 257 55
75 158 165 222 195 103 47 108 50 117 78 13 36 -2 78 -34 94 -14 6 -52 24 -85
39 -95 43 -216 172 -281 299 -29 55 -59 124 -69 152 -18 57 -45 83 -85 83 -14
0 -35 -7 -47 -15z m84 -343 c44 -80 117 -167 190 -226 34 -28 61 -53 61 -56 0
-3 -27 -28 -61 -56 -73 -59 -156 -158 -194 -231 -16 -29 -30 -53 -33 -53 -3 0
-19 26 -37 58 -44 80 -117 167 -190 226 -34 28 -61 53 -61 56 0 3 27 28 61 56
73 59 146 146 190 226 18 32 34 58 37 58 3 0 19 -26 37 -58z"/>
</g>
</svg>
