<?xml version="1.0" standalone="no"?>
<!DOCTYPE svg PUBLIC "-//W3C//DTD SVG 20010904//EN"
 "http://www.w3.org/TR/2001/REC-SVG-20010904/DTD/svg10.dtd">
<svg version="1.0" xmlns="http://www.w3.org/2000/svg"
 width="512.000000pt" height="512.000000pt" viewBox="0 0 512.000000 512.000000"
 preserveAspectRatio="xMidYMid meet">

<g transform="translate(0.000000,512.000000) scale(0.100000,-0.100000)"
fill="#bd9678" stroke="none">
<path d="M2410 5059 c-313 -39 -612 -188 -866 -431 -130 -125 -212 -227 -306
-376 -82 -129 -110 -197 -140 -334 -19 -90 -22 -132 -22 -338 0 -235 14 -389
50 -563 13 -65 13 -70 -6 -97 -53 -74 -75 -180 -59 -280 27 -173 179 -359 339
-413 58 -19 66 -40 14 -37 -69 5 -83 1 -124 -37 -55 -49 -113 -171 -152 -320
-28 -102 -32 -134 -32 -243 0 -171 18 -216 126 -323 60 -59 87 -95 110 -145
34 -76 101 -300 93 -312 -3 -5 -36 -18 -73 -30 -115 -38 -282 -109 -354 -151
-127 -75 -269 -240 -354 -414 -62 -128 -57 -180 17 -173 31 3 36 10 93 121 35
67 90 154 129 202 104 130 198 189 435 275 98 36 102 37 96 16 -12 -39 -112
-293 -169 -426 -59 -138 -61 -159 -22 -185 33 -21 65 -8 87 36 32 62 169 397
206 502 57 166 42 294 -68 566 -74 184 -78 197 -88 277 -14 109 3 214 57 363
25 69 69 191 98 271 47 130 55 145 78 148 16 2 27 -3 31 -14 8 -20 -18 -248
-44 -393 -11 -58 -20 -125 -20 -149 0 -57 35 -125 129 -245 213 -272 249 -424
157 -650 -34 -84 -77 -240 -141 -516 -32 -140 -34 -156 -20 -177 20 -31 51
-39 79 -20 18 11 28 33 41 93 46 214 120 496 147 560 33 81 58 166 58 202 0
14 20 45 53 80 83 91 134 214 152 372 l6 57 72 -28 c40 -15 114 -38 165 -50
l94 -23 91 23 c51 12 124 34 164 50 l72 27 6 -56 c18 -157 69 -282 153 -372
37 -41 52 -65 52 -85 0 -16 14 -67 31 -114 57 -160 87 -265 140 -494 45 -192
57 -231 76 -243 27 -18 58 -10 78 21 14 20 13 34 -10 137 -54 238 -118 477
-151 559 -91 225 -54 377 158 648 131 168 143 207 114 368 -8 44 -22 129 -30
189 -31 232 -30 250 14 243 19 -3 34 -37 120 -273 111 -305 128 -384 111 -509
-12 -82 -15 -94 -89 -277 -110 -272 -125 -400 -68 -566 36 -102 175 -441 207
-504 21 -43 54 -55 87 -33 36 24 37 41 7 112 -161 385 -210 512 -196 512 18 0
182 -61 257 -95 173 -79 298 -208 401 -413 62 -125 85 -146 129 -117 17 11 24
25 24 48 0 43 -86 214 -152 302 -142 188 -265 270 -563 372 -55 19 -103 38
-107 42 -11 9 36 177 79 285 32 79 45 97 118 170 112 111 129 154 129 326 -1
108 -5 142 -32 243 -39 148 -97 271 -152 320 -41 38 -55 42 -124 37 -52 -3
-44 18 14 37 160 54 312 240 339 413 16 100 -6 206 -59 280 -19 27 -19 32 -6
97 36 174 50 328 50 563 0 206 -3 248 -22 339 -28 127 -55 195 -122 306 -262
433 -671 738 -1099 819 -103 20 -296 27 -391 15z m368 -134 c171 -33 382 -126
545 -242 101 -72 293 -261 371 -366 127 -171 186 -294 218 -457 21 -109 15
-495 -11 -670 -11 -79 -21 -149 -21 -153 0 -6 -14 -6 -32 -2 -18 4 -51 10 -73
14 l-40 6 -7 85 c-50 586 -185 848 -501 974 -57 22 -83 41 -150 109 -256 258
-618 327 -870 167 -125 -79 -203 -186 -283 -387 -87 -217 -146 -300 -294 -413
-41 -31 -93 -76 -114 -100 -65 -72 -110 -194 -122 -329 -9 -105 -11 -111 -42
-111 -15 0 -44 -5 -65 -11 -22 -6 -40 -9 -42 -7 -2 2 -14 73 -26 158 -27 185
-33 546 -11 665 42 226 160 425 392 655 132 132 235 209 382 285 158 82 301
126 478 149 60 7 232 -3 318 -19z m-78 -601 c110 -35 192 -87 300 -194 84 -83
106 -99 171 -124 266 -103 366 -290 430 -801 19 -150 17 -437 -5 -575 -24
-156 -56 -291 -70 -295 -6 -2 -28 -6 -48 -10 -47 -7 -94 -53 -108 -104 -7 -26
-7 -70 0 -140 l11 -102 -45 -63 c-47 -66 -166 -183 -257 -253 -129 -99 -289
-177 -439 -212 -79 -19 -81 -19 -161 0 -208 49 -388 153 -573 329 -43 41 -98
103 -123 137 l-44 62 11 101 c5 56 7 114 4 128 -17 69 -76 122 -137 122 -30 0
-36 16 -66 165 -23 117 -37 229 -46 375 -11 189 31 488 57 408 4 -10 17 -9 59
1 74 19 395 26 517 12 94 -12 98 -11 115 10 22 27 21 35 -3 59 -58 58 -302 74
-480 31 -52 -13 -123 -36 -158 -52 l-63 -28 28 51 c19 34 52 71 98 107 204
164 275 262 368 509 46 122 90 193 157 255 132 121 306 153 500 91z m-1316
-1416 c3 -13 6 -48 6 -78 l0 -55 -46 0 c-34 0 -49 -5 -60 -19 -30 -42 -4 -96
46 -96 53 0 69 -26 95 -150 13 -63 27 -130 30 -148 8 -32 8 -32 -21 -22 -50
19 -89 48 -143 105 -155 164 -154 385 4 468 45 24 81 22 89 -5z m2444 3 c114
-59 150 -204 84 -345 -38 -82 -126 -176 -195 -211 -28 -13 -51 -24 -53 -22 -1
1 9 52 22 112 13 61 24 123 24 138 0 36 41 77 76 77 54 0 81 53 50 96 -11 14
-26 19 -61 19 l-47 0 6 44 c3 24 6 59 6 77 0 30 3 34 25 34 14 0 42 -9 63 -19z
m-2489 -1011 c-71 -192 -88 -261 -91 -363 -4 -98 -19 -83 -25 26 -6 92 9 182
55 317 45 135 91 212 115 191 4 -4 -20 -81 -54 -171z m2450 111 c71 -141 116
-327 108 -448 -6 -109 -21 -124 -25 -26 -3 102 -20 171 -91 362 -33 90 -58
167 -55 172 11 18 36 -6 63 -60z m-1809 -451 c47 -34 96 -67 109 -73 23 -11
23 -14 17 -92 -3 -44 -13 -107 -21 -140 -16 -64 -56 -150 -69 -150 -4 0 -20
32 -35 71 -37 95 -82 171 -154 262 -144 181 -148 192 -126 306 l12 57 91 -89
c50 -49 129 -117 176 -152z m1449 104 c1 -45 -21 -81 -136 -226 -71 -90 -117
-167 -152 -258 -14 -36 -30 -68 -35 -70 -27 -13 -83 156 -93 281 l-6 75 99 70
c54 38 144 113 199 166 l100 96 12 -46 c6 -26 12 -65 12 -88z"/>
<path d="M3025 3413 c-95 -15 -175 -52 -175 -82 0 -5 8 -18 18 -30 16 -21 20
-22 114 -10 121 14 443 7 516 -11 46 -12 55 -12 63 1 15 24 11 30 -53 58 -123
56 -367 93 -483 74z"/>
<path d="M1716 2969 c-44 -34 -30 -69 26 -69 12 0 49 -15 82 -34 125 -70 270
-87 356 -43 53 27 70 50 54 75 -10 14 -28 17 -120 18 -101 0 -116 3 -203 37
-106 42 -156 46 -195 16z"/>
<path d="M3205 2953 c-84 -34 -98 -37 -199 -37 -92 -1 -110 -4 -120 -18 -16
-25 1 -48 54 -75 85 -44 258 -22 355 44 22 15 58 30 79 33 22 3 44 13 50 23 9
15 6 23 -17 43 -40 34 -92 31 -202 -13z"/>
<path d="M2412 2544 c-31 -22 -29 -67 6 -99 78 -73 210 -71 290 5 31 29 29 75
-4 97 -25 16 -28 16 -74 -10 -59 -33 -84 -34 -135 -2 -47 29 -54 30 -83 9z"/>
<path d="M1603 2529 c-30 -30 -11 -62 43 -73 30 -7 64 11 64 33 0 33 -83 64
-107 40z"/>
<path d="M3450 2531 c-29 -8 -39 -44 -19 -67 9 -11 23 -14 48 -9 41 7 63 29
54 53 -12 31 -32 37 -83 23z"/>
<path d="M1777 2453 c-26 -25 20 -93 64 -93 26 0 43 35 29 60 -17 32 -74 53
-93 33z"/>
<path d="M3272 2437 c-31 -33 -29 -65 5 -73 22 -6 32 -1 55 25 23 26 26 35 18
51 -14 27 -52 25 -78 -3z"/>
<path d="M1906 2299 c-22 -33 7 -99 44 -99 44 0 50 60 10 100 -25 25 -35 25
-54 -1z"/>
<path d="M3167 2308 c-25 -20 -39 -66 -27 -89 16 -29 48 -23 70 14 24 39 25
51 4 71 -19 19 -25 20 -47 4z"/>
<path d="M2224 2159 c-18 -19 -18 -43 -1 -57 22 -18 127 -42 185 -42 30 0 76
-8 103 -17 47 -17 51 -17 98 0 27 9 73 17 103 17 58 0 163 24 185 42 17 14 17
43 -1 57 -11 10 -90 12 -336 12 -19 0 -99 0 -178 2 -120 2 -146 -1 -158 -14z"/>
<path d="M1962 2118 c-7 -7 -12 -28 -12 -48 0 -55 32 -77 64 -44 31 30 11 104
-28 104 -6 0 -17 -5 -24 -12z"/>
<path d="M3112 2118 c-16 -16 -16 -80 0 -96 18 -18 46 -14 58 7 30 57 -17 130
-58 89z"/>
<path d="M2473 1959 c-12 -4 -27 -18 -33 -30 -36 -67 86 -124 189 -88 51 18
68 71 32 103 -16 14 -30 17 -68 11 -27 -3 -60 -2 -73 3 -14 5 -35 6 -47 1z"/>
<path d="M1910 1911 c-30 -43 -24 -75 16 -79 26 -3 33 2 50 33 14 27 16 39 8
53 -19 29 -50 26 -74 -7z"/>
<path d="M3146 1924 c-20 -20 -20 -22 4 -62 16 -27 26 -33 48 -30 36 4 41 43
12 81 -24 31 -42 34 -64 11z"/>
</g>
</svg>
