<?xml version="1.0" standalone="no"?>
<!DOCTYPE svg PUBLIC "-//W3C//DTD SVG 20010904//EN"
 "http://www.w3.org/TR/2001/REC-SVG-20010904/DTD/svg10.dtd">
<svg version="1.0" xmlns="http://www.w3.org/2000/svg"
 width="512.000000pt" height="512.000000pt" viewBox="0 0 512.000000 512.000000"
 preserveAspectRatio="xMidYMid meet">

<g transform="translate(0.000000,512.000000) scale(0.100000,-0.100000)"
fill="#bd9678" stroke="none">
<path d="M2546 5018 c-7 -13 -16 -44 -19 -69 -20 -152 -123 -286 -250 -324
-29 -9 -91 -18 -140 -22 -93 -6 -109 -15 -109 -59 0 -39 22 -54 98 -65 214
-30 343 -192 344 -431 0 -44 21 -68 59 -68 38 0 47 13 65 99 47 226 184 341
405 341 67 0 94 15 94 54 0 42 -23 57 -108 71 -141 25 -238 94 -290 208 -25
54 -45 153 -45 223 0 49 -14 64 -57 64 -23 0 -37 -7 -47 -22z m154 -469 l59
-56 -35 -16 c-44 -21 -127 -99 -155 -144 l-22 -35 -30 56 c-17 31 -58 83 -92
115 l-62 57 40 23 c52 30 121 95 148 137 l21 35 34 -58 c19 -32 61 -83 94
-114z"/>
<path d="M1097 4602 c-13 -14 -17 -39 -17 -105 0 -77 2 -87 22 -101 30 -21 54
-20 78 4 17 17 20 33 20 98 0 90 -15 122 -59 122 -15 0 -35 -8 -44 -18z"/>
<path d="M851 4353 c-23 -28 -20 -59 7 -80 10 -8 47 -13 98 -13 93 0 114 11
114 60 0 45 -31 60 -121 60 -72 0 -79 -2 -98 -27z"/>
<path d="M1220 4360 c-24 -24 -25 -48 -4 -78 14 -20 24 -22 103 -22 97 0 121
12 121 63 0 42 -33 57 -122 57 -65 0 -81 -3 -98 -20z"/>
<path d="M1090 4231 c-14 -28 -13 -174 3 -193 23 -30 55 -31 82 -4 22 22 25
33 25 98 0 90 -15 118 -65 118 -24 0 -38 -6 -45 -19z"/>
<path d="M4387 4182 c-21 -23 -24 -181 -5 -200 22 -22 76 -15 94 13 24 37 16
171 -11 191 -26 19 -59 18 -78 -4z"/>
<path d="M4156 3949 c-30 -23 -33 -45 -10 -77 14 -20 24 -22 104 -22 80 0 90
2 104 22 40 57 -3 98 -104 98 -53 0 -73 -4 -94 -21z"/>
<path d="M4510 3952 c-25 -20 -30 -63 -10 -87 9 -11 34 -15 100 -15 71 0 90 3
103 18 23 25 21 58 -3 82 -28 28 -157 29 -190 2z"/>
<path d="M4392 3834 c-20 -14 -22 -24 -22 -104 0 -80 2 -90 22 -104 31 -22 45
-20 73 9 22 21 25 33 25 93 0 103 -40 147 -98 106z"/>
<path d="M655 3680 c-17 -18 -17 -27 -5 -110 17 -116 8 -198 -29 -275 -45 -94
-123 -162 -230 -201 -25 -10 -54 -24 -63 -32 -24 -20 -23 -65 2 -87 18 -17 23
-17 107 0 217 43 365 -35 467 -245 32 -67 47 -87 70 -95 25 -8 31 -6 53 19 14
17 22 35 18 45 -3 8 -11 51 -17 94 -21 144 17 262 111 350 44 41 127 88 193
110 9 3 24 18 34 32 13 21 15 31 6 50 -14 30 -48 40 -98 26 -223 -58 -403 30
-500 244 -15 33 -34 68 -42 78 -20 23 -55 22 -77 -3z m245 -397 c19 -12 61
-29 92 -39 l57 -17 -34 -38 c-42 -47 -63 -86 -90 -172 l-22 -67 -19 21 c-32
37 -135 99 -191 115 -29 8 -53 17 -53 18 0 2 14 21 31 42 40 49 86 144 94 195
l7 39 46 -38 c26 -21 63 -48 82 -59z"/>
<path d="M3698 3393 c-8 -10 -20 -38 -27 -63 -20 -70 -47 -115 -91 -152 -50
-43 -98 -58 -187 -58 -55 0 -73 -4 -86 -18 -34 -37 -13 -86 41 -98 156 -33
221 -109 231 -272 7 -100 13 -112 63 -112 30 0 58 31 58 65 0 35 46 120 86
159 47 46 126 71 201 63 62 -7 96 13 96 56 0 37 -17 54 -61 62 -149 28 -223
118 -226 278 -1 65 -5 82 -21 93 -26 19 -59 18 -77 -3z m74 -370 c12 -13 20
-24 17 -26 -41 -29 -84 -63 -99 -79 -18 -20 -18 -20 -34 11 -9 17 -30 46 -47
65 l-30 35 38 24 c21 14 49 36 62 51 l24 26 24 -43 c14 -23 34 -52 45 -64z"/>
<path d="M17 2272 c-29 -32 -21 -69 20 -91 31 -16 5015 -16 5046 0 41 22 50
64 19 92 -17 16 -208 17 -2544 17 -2433 0 -2526 -1 -2541 -18z"/>
<path d="M17 1632 c-29 -32 -21 -69 20 -91 31 -16 5015 -16 5046 0 41 22 50
64 19 92 -17 16 -208 17 -2544 17 -2433 0 -2526 -1 -2541 -18z"/>
<path d="M532 1134 c-176 -87 -174 -333 3 -427 54 -29 154 -29 210 0 47 25 85
64 111 113 25 47 25 152 0 202 -60 123 -203 173 -324 112z m169 -111 c32 -19
59 -68 59 -106 0 -61 -85 -128 -145 -113 -42 11 -85 57 -92 98 -16 101 90 173
178 121z"/>
<path d="M1825 1141 c-92 -41 -139 -115 -139 -216 0 -143 94 -239 234 -239
204 0 310 224 185 389 -59 76 -190 107 -280 66z m154 -116 c61 -31 77 -131 30
-181 -69 -73 -190 -38 -206 59 -16 98 86 169 176 122z"/>
<path d="M3105 1142 c-89 -42 -139 -122 -139 -222 0 -223 271 -320 417 -150
93 109 66 278 -57 354 -63 39 -159 47 -221 18z m155 -117 c92 -47 68 -195 -35
-221 -38 -9 -96 17 -122 55 -69 103 46 223 157 166z"/>
<path d="M4396 1146 c-47 -17 -101 -68 -127 -118 -67 -130 4 -292 146 -334 96
-27 182 -1 249 78 126 147 26 376 -168 385 -36 2 -77 -3 -100 -11z m144 -121
c36 -19 60 -62 60 -110 0 -26 -9 -45 -34 -73 -30 -32 -40 -37 -78 -37 -55 0
-95 25 -115 72 -43 103 67 200 167 148z"/>
<path d="M1172 524 c-157 -79 -176 -293 -35 -400 114 -87 281 -51 353 76 20
36 25 59 25 116 0 61 -4 77 -30 120 -66 106 -202 145 -313 88z m168 -109 c59
-31 77 -108 37 -166 -47 -70 -147 -70 -194 0 -70 104 44 225 157 166z"/>
<path d="M2452 524 c-157 -79 -176 -293 -35 -400 114 -87 281 -51 353 76 20
36 25 59 25 116 0 61 -4 77 -30 120 -66 106 -202 145 -313 88z m168 -109 c59
-31 77 -108 37 -166 -82 -122 -269 -10 -202 121 29 55 105 76 165 45z"/>
<path d="M3732 524 c-157 -79 -176 -293 -35 -400 114 -87 281 -51 353 76 20
36 25 59 25 116 0 61 -4 77 -30 120 -66 106 -202 145 -313 88z m168 -109 c59
-31 77 -108 37 -166 -82 -122 -269 -10 -202 121 29 55 105 76 165 45z"/>
</g>
</svg>
